<?xml version="1.0" encoding="utf-8"?>
<!-- Generator: Adobe Illustrator 24.3.0, SVG Export Plug-In . SVG Version: 6.00 Build 0)  -->
<svg version="1.0" id="katman_1" xmlns="http://www.w3.org/2000/svg" xmlns:xlink="http://www.w3.org/1999/xlink" x="0px" y="0px"
	 viewBox="0 0 437.66 500" style="enable-background:new 0 0 437.66 500;" xml:space="preserve">
<style type="text/css">
	.st0{fill:#95BF47;}
	.st1{fill:#5E8E3E;}
	.st2{fill:#FFFFFF;}
</style>
<path class="st0" d="M383.39,96.41c-0.29-2.66-2.64-3.84-4.4-4.14c-1.76-0.3-36.96-0.59-36.96-0.59s-29.63-28.98-32.56-31.93
	c-2.93-2.96-8.51-2.07-10.85-1.48c0,0-5.57,1.77-14.96,4.73c-1.47-5.03-3.81-11.24-7.04-17.44c-10.56-20.4-25.81-31.05-44.59-31.05
	c-1.17,0-2.64,0-3.81,0.3c-0.59-0.59-1.17-1.18-1.76-2.07c-8.21-8.87-18.48-13.01-30.8-12.71c-24.05,0.59-47.81,18.04-67.47,49.38
	c-13.79,21.88-24.05,49.38-26.99,70.67c-27.57,8.57-46.93,14.49-47.23,14.78c-13.79,4.43-14.37,4.73-16.13,18.04
	C36.37,162.64,0,446.78,0,446.78L305.37,500l132.3-33.12C437.66,466.88,383.69,98.77,383.39,96.41z M268.4,67.72
	c-7.04,2.07-14.96,4.73-23.76,7.39c-0.29-12.12-1.76-29.27-7.33-44.06C255.79,34.61,264.59,55.31,268.4,67.72z M228.8,80.14
	c-16.13,5.03-33.44,10.35-51.04,15.97c4.99-18.92,14.37-37.85,25.81-50.26c4.4-4.73,10.27-9.76,17.31-12.71
	C227.63,47.03,228.8,66.84,228.8,80.14z M195.95,16.28c5.57,0,10.27,1.18,14.37,3.84c-6.45,3.25-12.91,8.28-18.77,14.78
	c-15.25,16.56-26.99,41.99-31.68,66.82c-14.67,4.44-28.75,8.87-41.95,13.01C126.72,75.71,158.99,17.46,195.95,16.28z"/>
<path class="st1" d="M378.99,92.27c-1.76-0.3-36.96-0.59-36.96-0.59s-29.63-28.98-32.56-31.93c-1.17-1.18-2.64-1.76-4.11-1.76
	l0,442.02l132.3-33.12c0,0-53.98-367.82-54.27-370.48C382.81,93.74,380.75,92.56,378.99,92.27z"/>
<path class="st2" d="M232.04,160.87l-15.25,57.95c0,0-17.01-7.98-37.55-6.51c-29.92,1.77-30.21,20.7-29.92,25.72
	c1.76,26.02,69.23,31.64,73.04,92.25c2.93,47.9-25.23,80.42-65.71,83.08c-48.69,2.96-75.39-25.72-75.39-25.72l10.27-44.05
	c0,0,26.99,20.4,48.4,19.22c14.08-0.89,19.07-12.42,18.48-20.7c-2.05-33.71-57.2-31.93-60.72-87.22
	c-2.93-46.72,27.57-94.03,94.75-98.46C218.84,154.07,232.04,160.87,232.04,160.87z"/>
</svg>
